# xmcd
#
# Track frame offsets: 
#        150
#        125727
#        205730
#        278420
#
# Disc length: 4724 seconds
#
# Revision: 1
# Processed by: cddbd v1.5.2PL0 Copyright (c) Steve Scherf et al.
# Submitted via: ExactAudioCopy v1.3
#
DISCID=33127204
DTITLE=優人神鼓 - 2000~2002世界巡迴現場收錄 The Sound of Ocean
DYEAR=2000
DGENRE=New Age
TTITLE0=THE SOUND OF OCEAN 海潮音
TTITLE1=FLOWING WATER 流水
TTITLE2=LISTENING to THE HEART of ocean 聽海之心
TTITLE3=BREAKER 沖岩
EXTD=YEAR: 2001
EXTT0=
EXTT1=
EXTT2=
EXTT3=
PLAYORDER=
